<?xml version="1.0" standalone="no"?>
<!DOCTYPE svg PUBLIC "-//W3C//DTD SVG 20010904//EN"
 "http://www.w3.org/TR/2001/REC-SVG-20010904/DTD/svg10.dtd">
<svg version="1.0" xmlns="http://www.w3.org/2000/svg"
 width="512.000000pt" height="512.000000pt" viewBox="0 0 512.000000 512.000000"
 preserveAspectRatio="xMidYMid meet">

<g transform="translate(0.000000,512.000000) scale(0.100000,-0.100000)"
fill="#000000" stroke="none">
<path d="M2365 4949 c-169 -20 -370 -84 -495 -156 -96 -56 -193 -156 -231
-237 -35 -75 -48 -168 -31 -228 10 -37 10 -38 -37 -72 -97 -72 -190 -192 -236
-305 -45 -110 -55 -192 -55 -455 l0 -245 -25 -37 c-133 -196 -4 -466 235 -491
l59 -6 17 -56 c40 -139 133 -299 237 -409 33 -34 58 -64 56 -66 -2 -2 -155
-73 -339 -156 -195 -89 -357 -169 -388 -192 -29 -22 -68 -63 -86 -91 -34 -53
-406 -1075 -406 -1115 0 -67 217 -202 460 -285 691 -236 2047 -252 2816 -32
276 79 541 223 559 304 5 23 -33 140 -180 553 -200 563 -218 600 -307 668 -26
19 -200 104 -387 189 -188 85 -341 157 -341 161 0 3 23 28 50 55 99 97 204
277 244 416 l17 56 59 6 c238 25 368 295 236 489 -24 36 -24 40 -29 315 -2
179 -8 292 -16 316 -7 22 -10 41 -8 44 3 3 23 -7 44 -21 76 -52 143 -18 143
71 -1 379 -282 725 -729 898 -106 41 -260 81 -389 100 -122 19 -412 27 -517
14z m480 -174 c102 -14 251 -49 318 -74 l28 -11 -33 -62 c-42 -79 -176 -220
-272 -287 -199 -137 -535 -262 -716 -265 -69 -1 -81 2 -160 41 -212 106 -295
253 -217 385 70 120 253 221 489 268 157 31 349 33 563 5z m-1100 -676 c22
-22 68 -59 103 -81 69 -46 72 -54 45 -134 -11 -33 -34 -67 -72 -105 -60 -59
-111 -83 -206 -95 -29 -4 -59 -15 -72 -27 -22 -19 -23 -28 -23 -158 l0 -137
-41 -4 -41 -4 5 211 c5 228 12 265 69 380 32 62 154 195 180 195 8 0 32 -18
53 -41z m900 -199 c4 -11 18 -28 31 -37 31 -20 127 -12 263 23 53 13 98 24
102 24 3 0 11 -19 18 -42 47 -157 207 -312 347 -335 l34 -6 0 -66 0 -67 -61
-59 c-56 -56 -61 -59 -71 -40 -20 36 -87 93 -135 117 -44 20 -63 22 -213 23
-161 0 -166 -1 -217 -27 -69 -37 -120 -89 -150 -155 -13 -29 -28 -53 -33 -53
-5 0 -18 21 -29 46 -32 71 -75 118 -143 155 l-63 34 -165 0 c-159 0 -167 -1
-216 -27 -53 -28 -99 -67 -127 -108 l-17 -24 -60 59 -60 59 0 67 0 67 34 6
c19 4 66 22 104 41 113 57 205 168 242 293 7 23 14 42 16 42 1 0 49 -11 106
-25 144 -35 230 -42 262 -22 13 9 27 26 31 37 6 18 15 20 85 20 70 0 79 -2 85
-20z m-353 -630 c20 -6 50 -26 67 -45 67 -76 43 -196 -49 -242 -38 -20 -60
-23 -153 -23 -124 0 -163 13 -202 65 -62 81 -33 201 60 241 36 16 223 19 277
4z m800 0 c20 -6 50 -26 67 -45 67 -76 43 -196 -49 -242 -38 -20 -60 -23 -153
-23 -124 0 -163 13 -202 65 -62 81 -33 201 60 241 36 16 223 19 277 4z m-1572
-231 l0 -161 -32 6 c-17 3 -47 18 -66 32 -94 73 -76 221 33 270 66 29 65 31
65 -147z m2165 130 c42 -25 69 -75 69 -129 0 -76 -50 -136 -126 -154 l-28 -6
0 160 0 160 28 -6 c15 -4 41 -15 57 -25z m-1911 -134 c31 -105 109 -186 213
-220 41 -13 81 -16 195 -13 141 3 144 4 206 37 68 37 111 84 143 155 11 25 24
46 29 46 5 0 20 -24 33 -53 30 -66 81 -118 150 -154 48 -25 63 -28 194 -31
165 -4 224 8 295 62 54 42 102 114 118 177 8 32 24 59 52 85 l40 39 -5 -170
c-6 -201 -24 -284 -92 -422 -87 -177 -222 -311 -398 -398 -501 -246 -1090 22
-1239 565 -15 57 -21 116 -25 250 l-5 175 41 -39 c28 -27 45 -56 55 -91z m146
-1058 c0 -145 74 -311 190 -427 253 -254 647 -254 900 0 116 116 190 282 190
427 0 29 3 53 8 53 21 -1 662 -303 689 -325 18 -14 42 -43 53 -64 11 -22 95
-249 186 -507 l167 -467 -29 -24 c-79 -63 -306 -152 -520 -204 -610 -146
-1623 -157 -2279 -24 -252 51 -496 137 -609 214 -38 26 -47 38 -42 54 3 12 81
233 173 492 165 462 168 471 213 515 38 37 93 66 370 191 179 82 328 148 333
148 4 1 7 -23 7 -52z m265 12 c117 -46 240 -69 375 -69 163 0 289 29 469 107
11 5 12 -6 6 -58 -24 -207 -131 -347 -320 -419 -84 -31 -214 -32 -304 -1 -188
65 -303 213 -326 420 -6 52 -5 63 6 58 8 -3 50 -20 94 -38z"/>
<path d="M2185 2475 c-32 -31 -33 -78 -2 -109 36 -36 165 -95 247 -112 95 -20
242 -14 320 14 78 27 158 69 186 97 34 34 33 87 -2 114 -37 29 -58 27 -149
-19 -153 -77 -304 -76 -454 1 -87 45 -113 48 -146 14z"/>
<path d="M2503 937 c-237 -236 -263 -266 -263 -295 0 -44 38 -82 82 -82 29 0
59 26 295 263 237 236 263 266 263 295 0 44 -38 82 -82 82 -29 0 -59 -26 -295
-263z"/>
<path d="M1943 1017 c-90 -90 -103 -107 -103 -137 0 -30 13 -47 103 -137 88
-88 108 -103 135 -103 43 0 82 38 82 80 0 25 -13 45 -62 96 l-61 64 61 64 c49
51 62 71 62 96 0 42 -39 80 -82 80 -27 0 -47 -15 -135 -103z"/>
<path d="M2985 1095 c-43 -42 -34 -77 37 -151 l61 -64 -61 -64 c-49 -51 -62
-71 -62 -96 0 -42 39 -80 82 -80 27 0 47 15 135 103 90 90 103 107 103 137 0
30 -13 47 -103 137 -88 88 -108 103 -135 103 -22 0 -41 -9 -57 -25z"/>
</g>
</svg>
